# xmcd CD database file
#
# Track frame offsets:
#	150
#	16070
#	29015
#	44700
#	60775
#	78115
#	97977
#	110427
#	123885
#	144320
#	161490
#	178352
#	193745
#	213152
#	230847
#	247740
#	262480
#	281997
#
# Disc length: 3989 seconds
#
# Revision: 1
# Processed by: cddbd v1.5.1PL0 Copyright (c) Steve Scherf et al.
# Submitted via: CDex 1.51
#
DISCID=fe0f9312
DTITLE=PACTOS MUSICALES - PACTOS MUSICALES
DYEAR=1900
DGENRE=Salsa
TTITLE0=MARISELA
TTITLE1=GRUPO MIRAMAR
TTITLE2=SONIA RIVAS
TTITLE3=ALVARO TORRES
TTITLE4=DIEGO VERDAGUER
TTITLE5=GLORIA Y NOEMI GIL
TTITLE6=CHAVA FLORES
TTITLE7=CRICRI
TTITLE8=AMANDA MIGUEL
TTITLE9=MARISELA
TTITLE10=ALAVRO TORRES
TTITLE11=SERGIO ESQUIVEL
TTITLE12=VERONICA CASTRO
TTITLE13=ALDO MONGES
TTITLE14=DANIEL SANTOS Y ORLANDO CONTRERAS
TTITLE15=GRUPO OKEY
TTITLE16=JORGE NEGRETE CON EL TRIO CALAVARAS
TTITLE17=GRUPO MISSION
EXTD=
EXTT0=
EXTT1=
EXTT2=
EXTT3=
EXTT4=
EXTT5=
EXTT6=
EXTT7=
EXTT8=
EXTT9=
EXTT10=
EXTT11=
EXTT12=
EXTT13=
EXTT14=
EXTT15=
EXTT16=
EXTT17=
PLAYORDER=
